# xmcd
#
# Track frame offsets:
#	150
#	12438
#	28940
#	37656
#	57197
#
# Disc length: 944 seconds
#
# Revision: 1
# Processed by: cddbd v1.5.1PL0 Copyright (c) Steve Scherf et al.
# Submitted via: audiograbber 1.83.01
#
DISCID=3403ae05
DTITLE=Cordoba - Short Stacked EP
DYEAR=2004
DGENRE=Alternative Country
TTITLE0=Commence to Jigglin'
TTITLE1=Down to the Felt
TTITLE2=Die with yer boots on
TTITLE3=She's gettin over me
TTITLE4=Gettin loaded on rye
EXTD=
EXTT0=
EXTT1=
EXTT2=
EXTT3=
EXTT4=
PLAYORDER=
